<svg xmlns="http://www.w3.org/2000/svg" viewBox="0 0 512 512" fill="none">
  <!-- Background Circle -->
  <circle cx="256" cy="256" r="240" fill="#4F46E5" opacity="0.1"/>
  
  <!-- Chart Base -->
  <path d="M80 400 L80 320 L160 320 L160 400 L80 400" fill="#4F46E5"/>
  <path d="M176 400 L176 240 L256 240 L256 400 L176 400" fill="#6366F1"/>
  <path d="M272 400 L272 160 L352 160 L352 400 L272 400" fill="#818CF8"/>
  <path d="M368 400 L368 80 L448 80 L448 400 L368 400" fill="#A5B4FC"/>
  
  <!-- Growth Arrow -->
  <path d="M120 280 L200 200 L280 240 L400 120" stroke="#10B981" stroke-width="16" stroke-linecap="round" stroke-linejoin="round" fill="none"/>
  <path d="M400 120 L400 180 M400 120 L340 120" stroke="#10B981" stroke-width="16" stroke-linecap="round" stroke-linejoin="round" fill="none"/>
  
  <!-- Base Line -->
  <line x1="60" y1="400" x2="460" y2="400" stroke="#1F2937" stroke-width="8" stroke-linecap="round"/>
  
  <!-- Dollar Sign Circle -->
  <circle cx="400" cy="120" r="40" fill="#10B981"/>
  <text x="400" y="135" font-family="Arial, sans-serif" font-size="48" font-weight="bold" text-anchor="middle" fill="white">$</text>
</svg>